<svg xmlns="http://www.w3.org/2000/svg" xmlns:xlink="http://www.w3.org/1999/xlink" width="24" height="24" preserveAspectRatio="xMidYMid meet" viewBox="0 0 24 24" style="-ms-transform: rotate(360deg); -webkit-transform: rotate(360deg); transform: rotate(360deg);"><path d="M12 22c3.859 0 7-3.141 7-7s-3.141-7-7-7c-3.86 0-7 3.141-7 7s3.14 7 7 7zm0-12c2.757 0 5 2.243 5 5s-2.243 5-5 5s-5-2.243-5-5s2.243-5 5-5zm-1-8H7v5.518a8.957 8.957 0 0 1 4-1.459V2zm6 0h-4v4.059a8.957 8.957 0 0 1 4 1.459V2z" fill="white"/><path d="M10.019 15.811l-.468 2.726L12 17.25l2.449 1.287l-.468-2.726l1.982-1.932l-2.738-.398L12 11l-1.225 2.481l-2.738.398z" fill="white"/><rect x="0" y="0" width="24" height="24" fill="rgba(0, 0, 0, 0)" /></svg>