<svg xmlns="http://www.w3.org/2000/svg" xmlns:xlink="http://www.w3.org/1999/xlink" width="32" height="32" preserveAspectRatio="xMidYMid meet" viewBox="0 0 36 36" style="-ms-transform: rotate(360deg); -webkit-transform: rotate(360deg); transform: rotate(360deg);"><circle cx="13.5" cy="29.5" r="2.5" class="clr-i-solid clr-i-solid-path-1" fill="white"/><circle cx="26.5" cy="29.5" r="2.5" class="clr-i-solid clr-i-solid-path-2" fill="white"/><path d="M33.1 6.39a1 1 0 0 0-.79-.39H9.21l-.45-1.43a1 1 0 0 0-.66-.65L4 2.66a1 1 0 1 0-.59 1.92L7 5.68l4.58 14.47l-1.63 1.34l-.13.13A2.66 2.66 0 0 0 9.74 25A2.75 2.75 0 0 0 12 26h16.69a1 1 0 0 0 0-2H11.84a.67.67 0 0 1-.56-1l2.41-2h15.43a1 1 0 0 0 1-.76l3.2-13a1 1 0 0 0-.22-.85z" class="clr-i-solid clr-i-solid-path-3" fill="white"/><rect x="0" y="0" width="36" height="36" fill="rgba(0, 0, 0, 0)" /></svg>
